HIERARCHY
ROOT Hips
{
  OFFSET 51.775 54.0652 -4.84951
  CHANNELS 6 Xposition Yposition Zposition Zrotation Xrotation Yrotation
  JOINT spine
  {
    OFFSET 0 7.96568 0.458067
    CHANNELS 3 Zrotation Xrotation Yrotation
    JOINT spine1
    {
      OFFSET 0 10.2431 0
      CHANNELS 3 Zrotation Xrotation Yrotation
      JOINT spine2
      {
        OFFSET 0 9.81475 0
        CHANNELS 3 Zrotation Xrotation Yrotation
        JOINT Neck
        {
          OFFSET 0 25.1986 1.20138
          CHANNELS 3 Zrotation Xrotation Yrotation
          JOINT Head
          {
            OFFSET 0 7.61315 0
            CHANNELS 3 Zrotation Xrotation Yrotation
            End Site
            {
              OFFSET 0 18.4281 -6.07733
            }
          }
        }
        JOINT RightShoulder
        {
          OFFSET -4.1327 10.5992 -0.575451
          CHANNELS 3 Zrotation Xrotation Yrotation
          JOINT RightArm
          {
            OFFSET 0 13.9018 0
            CHANNELS 3 Zrotation Xrotation Yrotation
            JOINT RightArmRoll
            {
              OFFSET 0 7.01789 0
              CHANNELS 3 Zrotation Xrotation Yrotation
              JOINT RightForeArm
              {
                OFFSET 0 20.4406 0
                CHANNELS 3 Zrotation Xrotation Yrotation
                JOINT RightForeArmRoll
                {
                  OFFSET 0 7.87516 0
                  CHANNELS 3 Zrotation Xrotation Yrotation
                  JOINT RightHand
                  {
                    OFFSET 0 15.8037 0
                    CHANNELS 3 Zrotation Xrotation Yrotation
                    End Site
                    {
                      OFFSET 0 0 0
                    }
                  }
                }
              }
            }
          }
        }
        JOINT LeftShoulder
        {
          OFFSET 4.1327 10.5992 -0.575451
          CHANNELS 3 Zrotation Xrotation Yrotation
          JOINT LeftArm
          {
            OFFSET 0 13.9018 0
            CHANNELS 3 Zrotation Xrotation Yrotation
            JOINT LeftArmRoll
            {
              OFFSET 0 7.01789 0
              CHANNELS 3 Zrotation Xrotation Yrotation
              JOINT LeftForeArm
              {
                OFFSET 0 20.4406 0
                CHANNELS 3 Zrotation Xrotation Yrotation
                JOINT LeftForeArmRoll
                {
                  OFFSET 0 7.87516 0
                  CHANNELS 3 Zrotation Xrotation Yrotation
                  JOINT LeftHand
                  {
                    OFFSET 0 15.8037 0
                    CHANNELS 3 Zrotation Xrotation Yrotation
                    End Site
                    {
                      OFFSET 0 0 0
                    }
                  }
                }
              }
            }
          }
        }
      }
    }
  }
  JOINT RightUpLeg
  {
    OFFSET -7.06048 -1.2947 -1.0861
    CHANNELS 3 Zrotation Xrotation Yrotation
    JOINT RightUpLegRoll
    {
      OFFSET 0 18.5308 0
      CHANNELS 3 Zrotation Xrotation Yrotation
      JOINT RightLeg
      {
        OFFSET 0 -22.9476 0
        CHANNELS 3 Zrotation Xrotation Yrotation
        JOINT RightLegRoll
        {
          OFFSET 0 23.0226 0
          CHANNELS 3 Zrotation Xrotation Yrotation
          JOINT RightFoot
          {
            OFFSET 0 19.1625 0
            CHANNELS 3 Zrotation Xrotation Yrotation
            JOINT RightToeBase
            {
              OFFSET 0 16.0188 0
              CHANNELS 3 Zrotation Xrotation Yrotation
              End Site
              {
                OFFSET 0.00678979 7.75783 -0.894206
              }
            }
          }
        }
      }
    }
  }
  JOINT LeftUpLeg
  {
    OFFSET 7.06048 -1.2947 -1.0861
    CHANNELS 3 Zrotation Xrotation Yrotation
    JOINT LeftUpLegRoll
    {
      OFFSET 0 18.5309 0
      CHANNELS 3 Zrotation Xrotation Yrotation
      JOINT LeftLeg
      {
        OFFSET 0 22.9475 0
        CHANNELS 3 Zrotation Xrotation Yrotation
        JOINT LeftLegRoll
        {
          OFFSET 0 23.2355 0
          CHANNELS 3 Zrotation Xrotation Yrotation
          JOINT LeftFoot
          {
            OFFSET 0 18.9496 0
            CHANNELS 3 Zrotation Xrotation Yrotation
            JOINT LeftToeBase
            {
              OFFSET 0 16.0188 0
              CHANNELS 3 Zrotation Xrotation Yrotation
              End Site
              {
                OFFSET -0.0304289 7.75781 -0.894207
              }
            }
          }
        }
      }
    }
  }
}
MOTION
Frames: 13
Frame Time: 0.00208333
52.1264 55.2027 -2.37648 0.662886 2.8596 5.18746 0.795839 4.14034 -0.73818 1.67762 12.2712 -1.64983 1.7047 13.9156 -1.68353 -21.04 9.23416 3.14722 16.4151 28.8864 -4.55839 49.1108 0.981236 1.98211 122.567 53.9904 -13.5929 5.56597e-015 9.54166e-015 3.18055e-015 4.07914 55.1531 -4.59691 -4.12739e-006 -4.98669e-006 -3 8.0289 -4.95141 0.697674 -62.2555 -11.7068 7.24076 -103.889 20.8765 48.8503 7.95139e-015 -9.54166e-015 3.18055e-015 178.189 82.587 -166.712 9.49545e-006 3.47605e-007 3 -8.02899 -4.9514 -0.697688 77.2384 79.3796 104.079 180 7.01527e-015 178.839 -58.8218 87.2909 58.406 3.27169e-006 -1.13522e-006 1.75326 -16.5428 64.643 17.1154 8.12854 25.2331 -3.48435 -57.8191 84.5121 -124.216 4.5067e-006 -1.99009e-005 -1.25947 107.498 -87.5119 107.857 1.72445e-006 -4.9613e-006 -1.92489 15.4624 62.0149 -15.5639 -8.12914 25.233 3.4846 
52.1533 55.1878 -2.36063 0.648062 2.73127 5.23075 0.797895 4.13077 -0.743458 1.68204 12.252 -1.66068 1.70926 13.8964 -1.69448 -20.9796 9.23089 3.12845 16.329 28.8054 -4.53526 49.2519 0.982415 1.96149 122.487 53.8915 -13.5142 1.59028e-015 0 -0 4.10168 55.1555 -4.6109 -4.12739e-006 -4.98669e-006 -3 8.0289 -4.95141 0.697674 -62.2182 -11.6814 7.22643 -104.016 20.9472 48.6731 -7.95139e-015 1.59028e-014 6.36111e-015 178.758 82.7451 -167.424 9.49545e-006 3.47605e-007 3 -8.02899 -4.9514 -0.697688 77.7951 79.3805 103.526 180 7.01527e-015 178.839 -58.7606 87.2936 58.3427 3.27169e-006 -1.13522e-006 1.75104 -16.544 64.6519 17.1214 8.12854 25.2331 -3.48435 -58.6394 84.5527 -123.396 4.5067e-006 -1.99009e-005 -1.26012 107.567 -87.5159 107.923 1.72445e-006 -4.9613e-006 -1.92321 15.4565 62.0065 -15.5595 -8.12914 25.233 3.4846 
52.1433 55.1642 -2.40163 0.632762 2.60111 5.27232 0.800214 4.12181 -0.749098 1.68701 12.2339 -1.67233 1.71438 13.8783 -1.70624 -20.9246 9.22516 3.11412 16.2442 28.7243 -4.50881 49.3862 0.983621 1.94189 122.42 53.7962 -13.4408 7.15625e-015 -3.18055e-015 3.18055e-015 4.11988 55.1526 -4.62182 -4.12739e-006 -4.98669e-006 -3 8.0289 -4.95141 0.697674 -62.1863 -11.657 7.21257 -104.138 21.0185 48.4942 3.18055e-015 -1.59028e-015 9.54166e-015 179.34 82.8965 -168.143 9.49545e-006 3.47605e-007 3 -8.02899 -4.9514 -0.697688 78.358 79.3824 102.966 180 7.01527e-015 178.838 -58.7328 87.297 58.313 3.27169e-006 -1.13522e-006 1.74893 -16.5445 64.6592 17.1262 8.12854 25.2331 -3.48435 -59.4989 84.5914 -122.535 4.5067e-006 -1.99009e-005 -1.26082 107.6 -87.52 107.955 1.72445e-006 -4.9613e-006 -1.92173 15.4517 62 -15.5564 -8.12914 25.233 3.4846 
52.1317 55.1368 -2.47829 0.616568 2.46924 5.31244 0.802829 4.11337 -0.755172 1.69258 12.2167 -1.68492 1.72012 13.8611 -1.71895 -20.874 9.21798 3.10442 16.1585 28.6413 -4.47806 49.5145 0.986091 1.92403 122.361 53.704 -13.3698 0 0 -6.36111e-015 4.13388 55.1456 -4.62988 -4.12739e-006 -4.98669e-006 -3 8.0289 -4.95141 0.697674 -62.1579 -11.6332 7.19903 -104.256 21.0896 48.3127 -4.77083e-015 -6.36111e-015 -3.18055e-015 179.932 83.0418 -168.87 9.49545e-006 3.47605e-007 3 -8.02899 -4.9514 -0.697688 78.9273 79.3852 102.401 180 7.01527e-015 178.838 -58.7346 87.3014 58.3131 3.27169e-006 -1.13522e-006 1.7469 -16.5444 64.6653 17.1299 8.12854 25.2331 -3.48435 -60.395 84.6279 -121.636 4.5067e-006 -1.99009e-005 -1.26152 107.611 -87.524 107.964 1.72445e-006 -4.9613e-006 -1.92047 15.4479 61.9951 -15.5541 -8.12914 25.233 3.4846 
52.1371 55.1194 -2.49413 0.599661 2.33586 5.35116 0.805697 4.1054 -0.761599 1.69866 12.2004 -1.69826 1.72638 13.8448 -1.73243 -20.8273 9.20933 3.09873 16.0718 28.5569 -4.44359 49.6375 0.989415 1.90756 122.31 53.615 -13.3015 1.66979e-014 1.27222e-014 -0 4.14416 55.1345 -4.63538 -4.12739e-006 -4.98669e-006 -3 8.0289 -4.95141 0.697674 -62.1328 -11.61 7.1857 -104.37 21.1608 48.1289 1.59028e-015 0 6.36111e-015 -179.464 83.1816 -169.604 9.49545e-006 3.47605e-007 3 -8.02899 -4.9514 -0.697688 79.5022 79.3887 101.83 180 7.01527e-015 178.838 -58.7631 87.3066 58.3399 3.27169e-006 -1.13522e-006 1.74493 -16.5437 64.6702 17.1327 8.12854 25.2331 -3.48435 -61.3255 84.662 -120.701 4.5067e-006 -1.99009e-005 -1.26224 107.601 -87.5281 107.953 1.72445e-006 -4.9613e-006 -1.9194 15.4448 61.9915 -15.5527 -8.12914 25.233 3.4846 
52.1378 55.1018 -2.5407 0.58222 2.20119 5.38852 0.808777 4.09786 -0.768296 1.70519 12.1849 -1.7122 1.73309 13.8293 -1.74651 -20.7837 9.19922 3.09646 15.9842 28.4715 -4.40594 49.7559 0.993186 1.89207 122.267 53.5291 -13.2359 3.18055e-015 0 -3.18055e-015 4.1512 55.1193 -4.63861 -4.12739e-006 -4.98669e-006 -3 8.0289 -4.95141 0.697674 -62.111 -11.5871 7.17248 -104.481 21.2321 47.943 -3.18055e-015 6.36111e-015 3.18055e-015 -178.85 83.3163 -170.347 9.49545e-006 3.47605e-007 3 -8.02899 -4.9514 -0.697688 80.082 79.3926 101.254 180 7.01527e-015 178.838 -58.8139 87.3123 58.3891 3.27169e-006 -1.13522e-006 1.74303 -16.5425 64.6743 17.1348 8.12854 25.2331 -3.48435 -62.2885 84.6936 -119.733 4.5067e-006 -1.99009e-005 -1.26297 107.573 -87.5321 107.924 1.72445e-006 -4.9613e-006 -1.91848 15.4423 61.9891 -15.552 -8.12914 25.233 3.4846 
52.1367 55.0813 -2.5718 0.564424 2.06542 5.42457 0.812024 4.0907 -0.775182 1.71205 12.1701 -1.72655 1.74016 13.8145 -1.76101 -20.7427 9.18763 3.097 15.8955 28.3857 -4.36566 49.8705 0.996996 1.8772 122.23 53.4465 -13.1734 8.74653e-015 -9.54166e-015 3.18055e-015 4.15548 55.1 -4.63988 -4.12739e-006 -4.98669e-006 -3 8.0289 -4.95141 0.697674 -62.0921 -11.5644 7.15925 -104.589 21.3037 47.7554 -7.95139e-015 4.77083e-015 1.59028e-014 -178.223 83.4466 -171.099 9.49545e-006 3.47605e-007 3 -8.02899 -4.9514 -0.697688 80.6658 79.3968 100.675 180 7.01527e-015 178.838 -58.8841 87.3184 58.458 3.27169e-006 -1.13522e-006 1.7412 -16.5411 64.6775 17.1362 8.12854 25.2331 -3.48435 -63.2815 84.7229 -118.735 4.5067e-006 -1.99009e-005 -1.26371 107.53 -87.5362 107.879 1.72445e-006 -4.9613e-006 -1.91769 15.4404 61.9876 -15.5518 -8.12914 25.233 3.4846 
52.1329 55.064 -2.60707 0.546452 1.92877 5.45936 0.815397 4.08387 -0.782175 1.71919 12.156 -1.74114 1.74749 13.8003 -1.77576 -20.7036 9.17456 3.09973 15.8058 28.2999 -4.3233 49.982 1.00043 1.86256 122.199 53.3672 -13.1141 3.97569e-015 0 -3.18055e-015 4.15748 55.0767 -4.63948 -4.12739e-006 -4.98669e-006 -3 8.0289 -4.95141 0.697674 -62.0761 -11.5415 7.14591 -104.694 21.3758 47.5664 1.59028e-015 -3.18055e-015 9.54166e-015 -177.584 83.573 -171.86 9.49545e-006 3.47605e-007 3 -8.02899 -4.9514 -0.697688 81.2529 79.4011 100.092 180 7.01527e-015 178.838 -58.9695 87.3247 58.5423 3.27169e-006 -1.13522e-006 1.73942 -16.5393 64.6801 17.1371 8.12854 25.2331 -3.48435 -64.3022 84.7496 -117.708 4.5067e-006 -1.99009e-005 -1.26446 107.472 -87.5402 107.821 1.72445e-006 -4.9613e-006 -1.91701 15.4388 61.9868 -15.552 -8.12914 25.233 3.4846 
52.1306 55.043 -2.64316 0.528484 1.79145 5.49293 0.818851 4.07734 -0.789192 1.7265 12.1425 -1.75581 1.755 13.7868 -1.79059 -20.6657 9.15999 3.10405 15.7151 28.2145 -4.27941 50.091 1.00309 1.84777 122.174 53.2914 -13.0582 8.74653e-015 3.18055e-015 -0 4.1577 55.0494 -4.63771 -4.12739e-006 -4.98669e-006 -3 8.0289 -4.95141 0.697674 -62.0628 -11.5184 7.13233 -104.796 21.4486 47.3763 9.54166e-015 -1.59028e-014 3.18055e-015 -176.932 83.6961 -172.633 9.49545e-006 3.47605e-007 3 -8.02899 -4.9514 -0.697688 81.8425 79.4054 99.5067 180 7.01527e-015 178.838 -59.0669 87.331 58.6388 3.27169e-006 -1.13522e-006 1.73769 -16.5374 64.6822 17.1376 8.12854 25.2331 -3.48435 -65.3479 84.7739 -116.656 4.5067e-006 -1.99009e-005 -1.26523 107.404 -87.5443 107.752 1.72445e-006 -4.9613e-006 -1.91639 15.4376 61.9865 -15.5525 -8.12914 25.233 3.4846 
52.1203 55.0313 -2.67401 0.510699 1.65366 5.52533 0.822344 4.07106 -0.796152 1.73391 12.1295 -1.77038 1.76261 13.7738 -1.80533 -20.6285 9.14393 3.10936 15.6233 28.1301 -4.23454 50.1983 1.00457 1.83246 122.153 53.2191 -13.0059 2.46493e-014 1.27222e-014 9.54166e-015 4.1566 55.018 -4.63488 -4.12739e-006 -4.98669e-006 -3 8.0289 -4.95141 0.697674 -62.052 -11.4947 7.11843 -104.896 21.522 47.1854 -3.18055e-015 1.59028e-015 6.36111e-015 -176.265 83.8163 -173.419 9.49545e-006 3.47605e-007 3 -8.02899 -4.9514 -0.697688 82.4335 79.4094 98.9196 180 7.01527e-015 178.838 -59.1726 87.3371 58.7439 3.27169e-006 -1.13522e-006 1.73602 -16.5353 64.6839 17.1379 8.12854 25.2331 -3.48435 -66.4162 84.7957 -115.582 4.5067e-006 -1.99009e-005 -1.266 107.327 -87.5485 107.675 1.72445e-006 -4.9613e-006 -1.91583 15.4365 61.9864 -15.5532 -8.12914 25.233 3.4846 
52.1186 55.0099 -2.71093 0.493274 1.5156 5.55662 0.825834 4.06499 -0.802974 1.74133 12.117 -1.78468 1.77023 13.7613 -1.81979 -20.5912 9.12637 3.11504 15.5304 28.0472 -4.18922 50.3045 1.00445 1.81624 122.136 53.1504 -12.9575 2.8625e-014 6.36111e-015 9.54166e-015 4.15469 54.9826 -4.63128 -4.12739e-006 -4.98669e-006 -3 8.0289 -4.95141 0.697674 -62.0436 -11.4704 7.10408 -104.992 21.5965 46.9939 -4.77083e-015 3.18055e-015 -0 -175.581 83.9343 -174.219 9.49545e-006 3.47605e-007 3 -8.02899 -4.9514 -0.697688 83.0252 79.4131 98.3315 180 7.01526e-015 178.837 -59.2827 87.3427 58.8538 3.27169e-006 -1.13522e-006 1.73439 -16.5332 64.6855 17.138 8.12854 25.2331 -3.48435 -67.5045 84.815 -114.487 4.5067e-006 -1.99009e-005 -1.26679 107.244 -87.5528 107.591 1.72445e-006 -4.9613e-006 -1.91528 15.4355 61.9863 -15.5539 -8.12914 25.233 3.4846 
52.1352 54.9827 -2.74289 0.476389 1.37749 5.58682 0.829277 4.05907 -0.809575 1.74867 12.1049 -1.79854 1.77777 13.7492 -1.8338 -20.5533 9.10729 3.1205 15.4363 27.9661 -4.14399 50.4105 1.00232 1.79874 122.122 53.0854 -12.9132 5.56597e-015 9.54166e-015 -3.18055e-015 4.15243 54.9433 -4.62721 -4.12739e-006 -4.98669e-006 -3 8.0289 -4.95141 0.697674 -62.0374 -11.4453 7.08917 -105.087 21.6721 46.8023 3.18055e-015 -7.95139e-015 -3.18055e-015 -174.879 84.0504 -175.037 9.49545e-006 3.47605e-007 3 -8.02899 -4.9514 -0.697688 83.6164 79.4162 97.7433 180 7.01526e-015 178.837 -59.3932 87.3477 58.9645 3.27169e-006 -1.13522e-006 1.73281 -16.5312 64.6871 17.1381 8.12854 25.2331 -3.48435 -68.6097 84.8319 -113.377 4.5067e-006 -1.99009e-005 -1.26759 107.157 -87.5572 107.504 1.72445e-006 -4.9613e-006 -1.91473 15.4344 61.9861 -15.5545 -8.12914 25.233 3.4846 
52.1289 54.9666 -2.77858 0.460222 1.23953 5.616 0.832631 4.05328 -0.815873 1.75586 12.0931 -1.81178 1.78514 13.7374 -1.8472 -20.5141 9.0867 3.12511 15.341 27.8875 -4.09938 50.5169 0.997779 1.77957 122.11 53.0241 -12.873 -3.97569e-015 3.18055e-015 -6.36111e-015 4.15031 54.9 -4.62297 -4.12739e-006 -4.98669e-006 -3 8.0289 -4.95141 0.697674 -62.0332 -11.419 7.0736 -105.18 21.7489 46.6108 -1.27222e-014 1.27222e-014 6.36111e-015 -174.155 84.1653 -175.875 9.49545e-006 3.47605e-007 3 -8.02899 -4.9514 -0.697688 84.2062 79.4186 97.1559 180 7.01526e-015 178.837 -59.5004 87.3518 59.0723 3.27169e-006 -1.13522e-006 1.73126 -16.5294 64.6889 17.1383 8.12854 25.2331 -3.48435 -69.7296 84.8464 -112.252 4.5067e-006 -1.99009e-005 -1.2684 107.068 -87.5618 107.415 1.72445e-006 -4.9613e-006 -1.91414 15.4332 61.9854 -15.5548 -8.12914 25.233 3.4846 
